<svg width="890" height="282" viewBox="0 0 890 282" fill="none" xmlns="http://www.w3.org/2000/svg">
<rect x="481.026" y="235" width="20.1026" height="29.5" rx="6" fill="#22334F"/>
<rect x="392.399" y="235" width="20.1026" height="29.5" rx="6" fill="#22334F"/>
<path d="M177.796 1.07047C184.876 -1.33316 238.317 58.3535 264.026 88H234.325L174.922 7.10026C174.467 6.13458 172.039 3.02534 177.796 1.07047Z" fill="#22334F"/>
<path d="M681.256 0.0704696C674.177 -2.33316 620.736 57.3535 595.026 87H624.727L684.131 6.10026C684.586 5.13458 687.014 2.02534 681.256 0.0704696Z" fill="#22334F"/>
<path d="M176.658 138.398C105.922 111.784 6.78074 63.5417 4.34666 61.9194C1.91259 60.2971 -1.22064 53.7687 2.84925 51.3422C46.0056 66.0576 322.361 119.921 446.459 111.784C614.542 111.784 826.73 76.6383 869.671 64.6035C877.227 62.9342 875.754 66.3908 873.992 68.7739C862.314 84.574 728.985 127.262 670.523 159.556C612.061 191.849 511.283 237.505 496.807 244.743C449.481 267.014 422.199 254.765 407.166 249.197C335.858 216.434 242.661 163.231 176.658 138.398Z" fill="#EEEEEE"/>
<path d="M450.007 230L449.893 230L449.454 230C437.224 230.005 409.633 230.016 374.731 198.109C319.032 175.682 172.006 126.344 151.934 123.354C112.794 111.891 -17.1702 69.5302 1.89799 51.0907C6.875 48.5 7.67348 48.7992 62.6151 63.0515C117.557 77.3037 224.193 83.1523 270.358 85.478C309.665 86.4747 428 79.4976 445.484 79.4976C487.963 79.4976 579.339 86.4747 618.647 85.478C664.812 83.1523 770.991 75.411 826.389 63.0515C880 51.0907 884.375 50.875 887.106 51.0907C906.175 69.5302 776.21 111.891 737.07 123.354C716.998 126.344 569.973 175.682 514.273 198.109C479.345 230.039 453.605 230.005 450.007 230Z" fill="white"/>
<path fill-rule="evenodd" clip-rule="evenodd" d="M362.026 88.3423C382.461 88.3423 399.026 71.7768 399.026 51.3423C399.026 30.9077 382.461 14.3423 362.026 14.3423C341.592 14.3423 325.026 30.9077 325.026 51.3423C325.026 71.7768 341.592 88.3423 362.026 88.3423ZM362.026 81.0002C378.406 81.0002 391.684 67.7218 391.684 51.3421C391.684 34.9624 378.406 21.6841 362.026 21.6841C345.647 21.6841 332.368 34.9624 332.368 51.3421C332.368 67.7218 345.647 81.0002 362.026 81.0002Z" fill="white"/>
<path d="M444.502 182.548V146.437C430.397 140.105 417.468 140.171 412.766 140.996C403.094 144.557 381.03 168.697 380.527 173.149C380.023 177.601 387.251 183.232 397.15 182.548C407.049 181.864 442.698 177.629 444.502 182.548Z" fill="#B3CED3" stroke="#B3CED3"/>
<path d="M449.026 182.943V146.832C463.131 140.501 476.061 140.566 480.762 141.391C490.434 144.953 512.498 169.092 513.002 173.544C513.505 177.996 506.277 183.627 496.378 182.943C486.479 182.259 450.83 178.024 449.026 182.943Z" fill="#B3CED3" stroke="#B3CED3"/>
<rect x="438.975" y="250.5" width="20.1026" height="31.5" rx="6" fill="#22334F"/>
<path d="M432.958 251.919C431.211 247.953 434.116 243.5 438.449 243.5H458.551C462.884 243.5 465.789 247.953 464.042 251.919L460.078 260.919C459.119 263.095 456.965 264.5 454.587 264.5H442.413C440.035 264.5 437.881 263.095 436.922 260.919L432.958 251.919Z" fill="white"/>
<path fill-rule="evenodd" clip-rule="evenodd" d="M532.066 88.3425C552.501 88.3425 569.066 71.7771 569.066 51.3425C569.066 30.908 552.501 14.3425 532.066 14.3425C511.632 14.3425 495.066 30.908 495.066 51.3425C495.066 71.7771 511.632 88.3425 532.066 88.3425ZM532.066 81.0006C548.446 81.0006 561.724 67.7223 561.724 51.3426C561.724 34.9629 548.446 21.6846 532.066 21.6846C515.687 21.6846 502.408 34.9629 502.408 51.3426C502.408 67.7223 515.687 81.0006 532.066 81.0006Z" fill="white"/>
<path fill-rule="evenodd" clip-rule="evenodd" d="M339.157 31.4425C338.767 31.833 338.767 32.4662 339.157 32.8567L354.881 48.5804C355.575 47.2138 356.663 46.0807 357.994 45.3299L342.339 29.6747C341.949 29.2842 341.315 29.2842 340.925 29.6747L339.157 31.4425Z" fill="white"/>
<path fill-rule="evenodd" clip-rule="evenodd" d="M360.776 19.75C360.224 19.75 359.776 20.1977 359.776 20.75V44.5887C360.42 44.4002 361.097 44.2997 361.795 44.2997C362.663 44.2997 363.497 44.455 364.276 44.7415V20.75C364.276 20.1977 363.829 19.75 363.276 19.75H360.776Z" fill="white"/>
<path fill-rule="evenodd" clip-rule="evenodd" d="M354.377 49.8357H331.129C330.577 49.8357 330.129 50.2834 330.129 50.8357V53.3357C330.129 53.888 330.577 54.3357 331.129 54.3357H354.377C354.161 53.6236 354.045 52.8682 354.045 52.0857C354.045 51.3032 354.161 50.5478 354.377 49.8357Z" fill="white"/>
<path fill-rule="evenodd" clip-rule="evenodd" d="M358.293 59.0012C356.926 58.3076 355.792 57.2206 355.041 55.8892L339.389 71.5416C338.998 71.9321 338.998 72.5653 339.389 72.9558L341.156 74.7236C341.547 75.1141 342.18 75.1141 342.571 74.7236L358.293 59.0012Z" fill="white"/>
<path fill-rule="evenodd" clip-rule="evenodd" d="M359.545 59.504V81.2519C359.545 81.8042 359.993 82.2519 360.545 82.2519H363.045C363.597 82.2519 364.045 81.8042 364.045 81.2519V59.504C363.333 59.7197 362.577 59.8357 361.795 59.8357C361.012 59.8357 360.257 59.7197 359.545 59.504Z" fill="white"/>
<path fill-rule="evenodd" clip-rule="evenodd" d="M365.745 58.7549L381.714 74.7234C382.104 75.114 382.737 75.114 383.128 74.7234L384.896 72.9557C385.286 72.5651 385.286 71.932 384.896 71.5415L368.787 55.4329C368.123 56.8179 367.059 57.9751 365.745 58.7549Z" fill="white"/>
<path fill-rule="evenodd" clip-rule="evenodd" d="M369.213 54.3357C369.429 53.6236 369.545 52.8682 369.545 52.0857C369.545 51.3032 369.429 50.5478 369.213 49.8357H392.168C392.72 49.8357 393.168 50.2834 393.168 50.8357V53.3357C393.168 53.888 392.72 54.3357 392.168 54.3357L369.213 54.3357Z" fill="white"/>
<path fill-rule="evenodd" clip-rule="evenodd" d="M383.128 29.4478C382.738 29.0573 382.104 29.0573 381.714 29.4478L365.745 45.4165C367.059 46.1964 368.123 47.3535 368.787 48.7387L384.896 32.6298C385.286 32.2393 385.286 31.6061 384.896 31.2156L383.128 29.4478Z" fill="white"/>
</svg>
